<svg width="246" height="245" viewBox="0 0 246 245" fill="none" xmlns="http://www.w3.org/2000/svg">
<g filter="url(#filter0_i)">
<g filter="url(#filter1_d)">
<path fill-rule="evenodd" clip-rule="evenodd" d="M194.029 122.889C194.029 83.6153 162.011 51.7778 122.514 51.7778C83.0181 51.7778 51 83.6153 51 122.889C51 162.162 83.0181 194 122.514 194C162.011 194 194.029 162.162 194.029 122.889Z" fill="white"/>
<path fill-rule="evenodd" clip-rule="evenodd" d="M194.029 122.889C194.029 83.6153 162.011 51.7778 122.514 51.7778C83.0181 51.7778 51 83.6153 51 122.889C51 162.162 83.0181 194 122.514 194C162.011 194 194.029 162.162 194.029 122.889Z" stroke="#202020" stroke-width="2"/>
</g>
<path d="M100.13 91.87L132.19 124L100.13 156.13L110 166L152 124L110 82L100.13 91.87Z" fill="#202020"/>
</g>
<defs>
<filter id="filter0_i" x="40" y="40" width="168" height="172" filterUnits="userSpaceOnUse" color-interpolation-filters="sRGB">
<feFlood flood-opacity="0" result="BackgroundImageFix"/>
<feBlend mode="normal" in="SourceGraphic" in2="BackgroundImageFix" result="shape"/>
<feColorMatrix in="SourceAlpha" type="matrix" values="0 0 0 0 0 0 0 0 0 0 0 0 0 0 0 0 0 0 127 0" result="hardAlpha"/>
<feOffset dy="4"/>
<feGaussianBlur stdDeviation="2"/>
<feComposite in2="hardAlpha" operator="arithmetic" k2="-1" k3="1"/>
<feColorMatrix type="matrix" values="0 0 0 0 0 0 0 0 0 0 0 0 0 0 0 0 0 0 0.25 0"/>
<feBlend mode="normal" in2="shape" result="effect1_innerShadow"/>
</filter>
<filter id="filter1_d" x="0" y="0.777832" width="245.029" height="244.222" filterUnits="userSpaceOnUse" color-interpolation-filters="sRGB">
<feFlood flood-opacity="0" result="BackgroundImageFix"/>
<feColorMatrix in="SourceAlpha" type="matrix" values="0 0 0 0 0 0 0 0 0 0 0 0 0 0 0 0 0 0 127 0"/>
<feOffset/>
<feGaussianBlur stdDeviation="25"/>
<feColorMatrix type="matrix" values="0 0 0 0 0 0 0 0 0 0 0 0 0 0 0 0 0 0 0.3 0"/>
<feBlend mode="normal" in="SourceGraphic" in2="effect1_dropShadow" result="shape"/>
</filter>
</defs>
</svg>
