<svg width="260" height="260" viewBox="0 0 260 260" fill="none" xmlns="http://www.w3.org/2000/svg">
<path d="M256.302 66.1408C261.975 89.8839 255.984 112.373 246.552 134.05C235.379 159.725 217.358 180.087 195.692 197.434C181.209 209.032 165.478 218.642 148.786 226.746C147.03 227.6 144.538 227.872 141.312 227.566C140.699 227.508 140.234 226.986 140.247 226.372L140.27 225.296C144.908 221.498 147.849 218.178 149.094 215.334C181.248 141.92 164.886 105.753 151.148 82.4638C149.948 80.0429 148.644 77.6326 147.241 75.2369C143.049 68.0774 138.701 63.0422 131.594 57.0081L129.759 55.4769C129.443 55.2176 129.121 54.9562 128.795 54.6923L126.77 53.0784L124.607 51.3958L122.299 49.6336L118.82 47.0157L119.226 46.0581C126.457 29.59 140.323 20.1921 156.248 13.9004C198.131 -2.64752 245.823 22.3131 256.302 66.1408Z" fill="#94BCD9"/>
<g style="mix-blend-mode:overlay">
<g style="mix-blend-mode:overlay">
<path d="M256.302 66.1408C261.975 89.8839 255.984 112.373 246.552 134.05C235.379 159.725 217.358 180.087 195.692 197.434C181.209 209.032 165.478 218.642 148.786 226.746C147.03 227.6 144.538 227.872 141.312 227.566C140.699 227.508 140.234 226.986 140.247 226.372L140.27 225.296C144.908 221.498 147.849 218.178 149.094 215.334C181.248 141.92 164.886 105.753 151.148 82.4638C149.948 80.0429 148.644 77.6326 147.241 75.2369C143.049 68.0774 138.701 63.0422 131.594 57.0081L129.759 55.4769C129.443 55.2176 129.121 54.9562 128.795 54.6923L126.77 53.0784L124.607 51.3958L122.299 49.6336L118.82 47.0157L119.226 46.0581C126.457 29.59 140.323 20.1921 156.248 13.9004C198.131 -2.64752 245.823 22.3131 256.302 66.1408Z" fill="#333333"/>
</g>
</g>
<path d="M71.4951 48.6874C83.8948 48.6463 95.3981 50.9369 106.62 55.6831L108.935 57.438L113.591 60.9234L115.907 62.6794C123.208 68.2745 130.14 74.2577 134.932 82.4428C149.244 106.88 152.749 134.895 136.463 156.439L135.742 157.372C135.663 157.473 135.604 157.56 135.554 157.644L135.426 157.894L135.214 158.356C135.183 158.42 135.148 158.488 135.109 158.563L134.8 159.098L134.517 159.534L134.135 160.031L130.776 164.246L128.529 167.15L127.553 168.441L126.547 169.794L125.003 171.924L123.962 173.397L122.925 174.904L121.9 176.436L120.895 177.986L119.922 179.546C117.057 184.229 114.733 188.93 114.085 192.658C111.218 209.143 116.396 223.536 123.775 237.272L124.957 239.437L126.171 241.59L127.411 243.735L128.673 245.873L129.951 248.006L129.901 250.327C127.72 251.755 125.744 251.175 123.824 250.272L123.004 249.87L122.188 249.457C87.8603 232.304 55.702 212.045 29.1929 183.921C15.649 169.551 5.19746 153.298 2.44235 133.302C-3.32582 91.4669 27.9627 48.8342 71.4951 48.6874ZM110.163 105.73C103.861 105.73 98.7515 110.838 98.7515 117.138C98.7515 123.439 103.861 128.547 110.163 128.547C116.465 128.547 121.574 123.439 121.574 117.138C121.574 110.838 116.465 105.73 110.163 105.73ZM35.9902 105.73C29.688 105.73 24.5792 110.838 24.5792 117.138C24.5792 123.439 29.688 128.547 35.9902 128.547C42.2925 128.547 47.4014 123.439 47.4014 117.138C47.4014 110.838 42.2925 105.73 35.9902 105.73ZM73.0765 105.73C66.7743 105.73 61.6653 110.838 61.6653 117.138C61.6653 123.439 66.7743 128.547 73.0765 128.547C79.3787 128.547 84.4877 123.439 84.4877 117.138C84.4877 110.838 79.3787 105.73 73.0765 105.73Z" fill="#EBAB98"/>
<g style="mix-blend-mode:overlay">
<g style="mix-blend-mode:overlay">
<path d="M71.4951 48.6874C83.8948 48.6463 95.3981 50.9369 106.62 55.6831L108.935 57.438L113.591 60.9234L115.907 62.6794C123.208 68.2745 130.14 74.2577 134.932 82.4428C149.244 106.88 152.749 134.895 136.463 156.439L135.742 157.372C135.663 157.473 135.604 157.56 135.554 157.644L135.426 157.894L135.214 158.356C135.183 158.42 135.148 158.488 135.109 158.563L134.8 159.098L134.517 159.534L134.135 160.031L130.776 164.246L128.529 167.15L127.553 168.441L126.547 169.794L125.003 171.924L123.962 173.397L122.925 174.904L121.9 176.436L120.895 177.986L119.922 179.546C117.057 184.229 114.733 188.93 114.085 192.658C111.218 209.143 116.396 223.536 123.775 237.272L124.957 239.437L126.171 241.59L127.411 243.735L128.673 245.873L129.951 248.006L129.901 250.327C127.72 251.755 125.744 251.175 123.824 250.272L123.004 249.87L122.188 249.457C87.8603 232.304 55.702 212.045 29.1929 183.921C15.649 169.551 5.19746 153.298 2.44235 133.302C-3.32582 91.4669 27.9627 48.8342 71.4951 48.6874ZM110.163 105.73C103.861 105.73 98.7515 110.838 98.7515 117.138C98.7515 123.439 103.861 128.547 110.163 128.547C116.465 128.547 121.574 123.439 121.574 117.138C121.574 110.838 116.465 105.73 110.163 105.73ZM35.9902 105.73C29.688 105.73 24.5792 110.838 24.5792 117.138C24.5792 123.439 29.688 128.547 35.9902 128.547C42.2925 128.547 47.4014 123.439 47.4014 117.138C47.4014 110.838 42.2925 105.73 35.9902 105.73ZM73.0765 105.73C66.7743 105.73 61.6653 110.838 61.6653 117.138C61.6653 123.439 66.7743 128.547 73.0765 128.547C79.3787 128.547 84.4877 123.439 84.4877 117.138C84.4877 110.838 79.3787 105.73 73.0765 105.73Z" fill="#333333"/>
</g>
</g>
</svg>
