<svg width="666" height="112" viewBox="0 0 666 112" fill="none" xmlns="http://www.w3.org/2000/svg">
<path d="M158.376 88V84.9186L165.143 83.7197C165.2 81.4373 165.229 79.1544 165.229 76.872C165.285 74.5891 165.314 72.3067 165.314 70.0238V51.8767H158.205V48.1103L165.485 47.1687C165.885 42.6034 166.513 38.9226 167.37 36.1263C168.283 33.273 169.796 30.7906 171.909 28.6792C173.737 26.853 175.649 25.5975 177.648 24.9128C179.647 24.2279 181.617 23.8856 183.558 23.8856C185.556 23.8856 187.327 24.2565 188.868 24.9984C190.41 25.6831 191.381 26.853 191.78 28.508C191.723 29.5922 191.238 30.5053 190.324 31.2472C189.411 31.989 188.154 32.36 186.556 32.36C184.5 32.36 182.444 31.5039 180.389 29.792L177.991 27.9087C177.762 28.0799 177.534 28.2512 177.305 28.4224C177.134 28.5936 176.963 28.7648 176.792 28.9359C175.307 30.4197 174.165 32.6738 173.365 35.6984C172.623 38.6658 172.309 42.5464 172.423 47.34H184.243V51.8767H172.595V70.0238C172.595 72.3067 172.595 74.5891 172.595 76.872C172.652 79.0975 172.708 81.3514 172.766 83.6344L180.475 84.9186V88H158.376Z" fill="#5393C2"/>
<path d="M190.283 88.0001V84.9186L196.707 83.7197C196.764 81.5517 196.793 79.2119 196.793 76.7009C196.849 74.133 196.878 71.9075 196.878 70.0238V66.0011C196.878 63.6613 196.849 61.7207 196.793 60.18C196.793 58.5824 196.735 56.9272 196.621 55.2152L189.769 54.4448V51.4488L202.96 46.2272L204.244 47.0832L203.987 58.7246V70.0238C203.987 71.9075 203.987 74.133 203.987 76.7009C204.044 79.2119 204.101 81.5517 204.159 83.7197L210.154 84.9186V88.0001H190.283ZM200.39 36.8112C198.791 36.8112 197.421 36.2976 196.279 35.2704C195.193 34.2432 194.651 32.9307 194.651 31.3328C194.651 29.6779 195.193 28.3653 196.279 27.3952C197.421 26.368 198.791 25.8544 200.39 25.8544C201.989 25.8544 203.331 26.368 204.415 27.3952C205.557 28.3653 206.128 29.6779 206.128 31.3328C206.128 32.9307 205.557 34.2432 204.415 35.2704C203.331 36.2976 201.989 36.8112 200.39 36.8112Z" fill="#5393C2"/>
<path d="M214.51 88.0001V84.9187L220.848 83.7197C220.905 81.5517 220.934 79.2119 220.934 76.7009C220.991 74.1899 221.019 71.9644 221.019 70.0238V65.9152C221.019 63.5754 220.991 61.6354 220.934 60.0947C220.934 58.5534 220.877 56.9272 220.762 55.2152L213.996 54.4448V51.4488L225.987 46.2272L227.272 47.0832L227.957 53.9312C230.07 51.6486 232.497 49.7939 235.237 48.3672C237.978 46.9406 240.662 46.2272 243.288 46.2272C247 46.2272 249.741 47.4827 251.511 49.9936C253.338 52.4475 254.252 56.4707 254.252 62.0631V70.0238C254.252 71.9644 254.252 74.1899 254.252 76.7009C254.309 79.2119 254.366 81.5517 254.424 83.7197L260.419 84.9187V88.0001H240.548V84.9187L246.886 83.7197C246.943 81.6086 246.972 79.2972 246.972 76.7862C247.029 74.2183 247.057 71.9644 247.057 70.0238V62.7479C247.057 58.8105 246.486 56.0998 245.345 54.616C244.259 53.1323 242.46 52.3904 239.948 52.3904C238.007 52.3904 236.123 52.7899 234.295 53.5888C232.468 54.3877 230.47 55.7003 228.3 57.5264V70.0238C228.3 71.9075 228.3 74.133 228.3 76.7009C228.357 79.2119 228.414 81.5517 228.471 83.7197L234.381 84.9187V88.0001H214.51Z" fill="#5393C2"/>
<path d="M269.45 67.8841C269.45 73.4766 270.563 77.6136 272.791 80.2958C275.074 82.9212 277.93 84.2338 281.356 84.2338C283.24 84.2338 284.896 83.8624 286.323 83.1208C287.808 82.3217 289.35 81.0381 290.949 79.2687V55.5575C289.007 53.8456 287.266 52.6757 285.724 52.0479C284.182 51.4202 282.698 51.1064 281.27 51.1064C279.158 51.1064 277.187 51.7055 275.36 52.9039C273.59 54.0453 272.163 55.8714 271.077 58.3821C269.993 60.8363 269.45 64.0036 269.45 67.8841ZM291.805 88.856L291.206 82.9496C289.721 84.8896 288.008 86.4019 286.067 87.4865C284.182 88.5705 281.898 89.1125 279.214 89.1125C275.731 89.1125 272.676 88.2281 270.05 86.4593C267.423 84.69 265.367 82.2364 263.883 79.0975C262.455 75.9017 261.742 72.2208 261.742 68.0553C261.742 63.6612 262.541 59.8376 264.14 56.5847C265.739 53.332 267.909 50.7925 270.649 48.9664C273.39 47.1402 276.502 46.2272 279.986 46.2272C281.984 46.2272 283.897 46.6266 285.724 47.4256C287.608 48.2245 289.436 49.6797 291.206 51.7911V32.4456L283.925 31.5895V28.5936L297.287 24.7416L298.486 25.4263L298.143 37.5815V83.8914L305.081 84.9186V88L291.805 88.856Z" fill="#5393C2"/>
<path d="M359.108 88.8561C357.053 88.8561 355.34 88.2566 353.97 87.0583C352.599 85.8599 351.742 84.2623 351.4 82.2649C349.059 84.5472 347.003 86.2597 345.233 87.4006C343.463 88.5421 341.322 89.1126 338.809 89.1126C335.669 89.1126 332.956 88.2282 330.672 86.4594C328.445 84.6331 327.332 81.9509 327.332 78.4128C327.332 76.7577 327.703 75.217 328.445 73.7906C329.245 72.3636 330.672 70.9657 332.728 69.5961C334.783 68.2266 337.724 66.8571 341.55 65.4869C342.863 65.0308 344.377 64.5457 346.09 64.0321C347.803 63.5185 349.516 63.0618 351.228 62.6626V60.5224C351.228 56.3566 350.601 53.5888 349.344 52.2192C348.088 50.8496 346.032 50.1648 343.177 50.1648C342.55 50.1648 341.835 50.1934 341.036 50.2504C340.294 50.3075 339.466 50.4502 338.552 50.6784L336.925 56.2424C336.125 58.9817 334.641 60.3512 332.471 60.3512C330.073 60.3512 328.731 59.1813 328.445 56.8416C329.245 53.5888 331.129 51.0208 334.098 49.1376C337.125 47.1973 340.808 46.2272 345.147 46.2272C349.658 46.2272 352.999 47.3685 355.169 49.6512C357.339 51.8768 358.423 55.7003 358.423 61.1218V79.3546C358.423 81.1803 358.709 82.493 359.28 83.292C359.851 84.0337 360.593 84.4051 361.507 84.4051C362.249 84.4051 362.877 84.2339 363.391 83.8915C363.905 83.5485 364.391 83.0924 364.848 82.5214L366.56 84.4051C365.533 86.0595 364.391 87.2294 363.134 87.9142C361.935 88.5421 360.593 88.8561 359.108 88.8561ZM334.955 77.1286C334.955 79.4115 335.611 81.0381 336.925 82.0078C338.238 82.9781 339.866 83.4632 341.807 83.4632C342.663 83.4632 343.463 83.3489 344.205 83.1208C345.005 82.8928 345.947 82.4645 347.032 81.8366C348.117 81.1519 349.516 80.1822 351.228 78.9264V65.8299C349.744 66.2292 348.288 66.6859 346.86 67.1994C345.433 67.6556 344.262 68.0554 343.349 68.3978C340.894 69.3675 339.066 70.3662 337.867 71.3933C336.668 72.4211 335.869 73.4192 335.469 74.3895C335.126 75.3598 334.955 76.2726 334.955 77.1286Z" fill="#5393C2"/>
<path d="M387.047 88V84.9186L393.471 83.7197C393.528 81.5516 393.556 79.2118 393.556 76.7008C393.614 74.1329 393.642 71.9074 393.642 70.0238V32.4456L386.619 31.5895V28.5936L399.723 24.7416L400.922 25.4263L400.58 37.5815V54.1023C402.693 51.7626 405.148 49.8794 407.946 48.4528C410.744 46.969 413.513 46.2272 416.254 46.2272C419.966 46.2272 422.706 47.4826 424.477 49.9936C426.304 52.4474 427.217 56.4706 427.217 62.063V70.0238C427.217 71.9643 427.217 74.1898 427.217 76.7008C427.274 79.2118 427.332 81.5516 427.389 83.7197L433.384 84.9186V88H413.513V84.9186L419.766 83.8055C419.823 81.6369 419.851 79.2971 419.851 76.7861C419.909 74.2182 419.937 71.9643 419.937 70.0238V62.7478C419.937 58.8104 419.394 56.0997 418.31 54.616C417.225 53.1322 415.426 52.3904 412.914 52.3904C410.801 52.3904 408.802 52.8183 406.918 53.6744C405.034 54.5304 403.007 55.957 400.837 57.9543V70.0238C400.837 71.9074 400.837 74.1329 400.837 76.7008C400.894 79.2118 400.951 81.5516 401.008 83.7197L406.918 84.9186V88H387.047Z" fill="#5393C2"/>
<path d="M452.964 50.1648C451.365 50.1648 449.738 50.6213 448.082 51.5344C446.482 52.4475 445.084 53.9027 443.885 55.9C442.743 57.8973 442 60.5508 441.657 63.8609H457.246C459.302 63.8609 460.644 63.4326 461.272 62.5767C461.957 61.7207 462.3 60.6651 462.3 59.4093C462.3 57.7547 461.871 56.2424 461.015 54.8728C460.215 53.4461 459.102 52.3048 457.674 51.4488C456.304 50.5928 454.733 50.1648 452.964 50.1648ZM452.878 89.1126C447.111 89.1126 442.485 87.2579 439.003 83.5485C435.519 79.7823 433.777 74.6181 433.777 68.0554C433.777 63.6613 434.663 59.8376 436.433 56.5848C438.26 53.332 440.658 50.7925 443.627 48.9664C446.654 47.1403 449.937 46.2272 453.478 46.2272C456.447 46.2272 459.131 46.8834 461.529 48.196C463.927 49.5085 465.84 51.3918 467.267 53.8456C468.695 56.2424 469.409 59.1813 469.409 62.6626C469.409 63.6323 469.352 64.5457 469.237 65.4016C469.123 66.2007 468.98 66.8855 468.809 67.4559H441.486C441.6 72.706 442.914 76.7009 445.426 79.4399C447.939 82.179 451.251 83.5485 455.362 83.5485C458.102 83.5485 460.387 83.0065 462.214 81.9225C464.041 80.781 465.726 79.3256 467.267 77.5568L469.323 79.1834C467.724 82.208 465.554 84.6331 462.814 86.4594C460.072 88.2282 456.76 89.1126 452.878 89.1126Z" fill="#5393C2"/>
<path d="M469.73 88V84.9186L476.583 83.7197C476.64 81.3804 476.669 79.0975 476.669 76.872C476.725 74.5891 476.754 72.3067 476.754 70.0238V32.4456L469.73 31.5895V28.5936L483.092 24.7416L484.291 25.4263L483.949 37.5815V70.0238C483.949 72.3067 483.949 74.5891 483.949 76.872C484.006 79.1544 484.063 81.4373 484.12 83.7197L490.972 84.9186V88H469.73Z" fill="#5393C2"/>
<path d="M490.959 108.458V105.462L497.812 104.264C497.869 101.924 497.898 99.5843 497.898 97.245C497.955 94.9621 497.983 92.6797 497.983 90.3968V65.9152C497.983 63.5754 497.955 61.6354 497.898 60.0947C497.898 58.5534 497.84 56.9272 497.726 55.2152L490.959 54.4448V51.4488L502.951 46.2272L504.235 47.0832L504.749 52.6472C508.804 48.3672 513.115 46.2272 517.683 46.2272C520.766 46.2272 523.535 47.0832 525.991 48.7952C528.447 50.5072 530.388 52.9611 531.815 56.1568C533.3 59.2956 534.042 63.0903 534.042 67.5418C534.042 71.9359 533.272 75.759 531.729 79.0122C530.188 82.208 528.075 84.69 525.391 86.4594C522.765 88.2282 519.767 89.1126 516.398 89.1126C514.456 89.1126 512.515 88.7133 510.574 87.9142C508.689 87.1157 506.834 85.6603 505.006 83.5485V90.3115C505.006 92.5938 505.006 94.8768 505.006 97.1591C505.063 99.499 505.121 101.839 505.178 104.179L512.972 105.462V108.458H490.959ZM515.627 51.1064C514.314 51.1064 512.8 51.4488 511.088 52.1336C509.375 52.7614 507.433 53.9883 505.263 55.8144V79.8682C506.862 81.4089 508.432 82.5214 509.974 83.2062C511.516 83.8915 513.086 84.2339 514.685 84.2339C517.883 84.2339 520.623 82.9497 522.908 80.3818C525.191 77.8133 526.334 73.7616 526.334 68.2266C526.334 62.7479 525.334 58.525 523.336 55.5576C521.337 52.5902 518.768 51.1064 515.627 51.1064Z" fill="#5393C2"/>
<path d="M534.043 88V84.9186L540.895 83.7197C540.952 81.3804 540.981 79.0975 540.981 76.872C541.038 74.5891 541.066 72.3067 541.066 70.0238V32.4456L534.043 31.5895V28.5936L547.405 24.7416L548.604 25.4263L548.261 37.5815V70.0238C548.261 72.3067 548.261 74.5891 548.261 76.872C548.318 79.1544 548.376 81.4373 548.433 83.7197L555.285 84.9186V88H534.043Z" fill="#5393C2"/>
<path d="M558.697 88.0001V84.9186L565.122 83.7197C565.179 81.5517 565.207 79.2119 565.207 76.7009C565.265 74.133 565.293 71.9075 565.293 70.0238V66.0011C565.293 63.6613 565.265 61.7207 565.207 60.18C565.207 58.5824 565.15 56.9272 565.036 55.2152L558.184 54.4448V51.4488L571.374 46.2272L572.659 47.0832L572.402 58.7246V70.0238C572.402 71.9075 572.402 74.133 572.402 76.7009C572.459 79.2119 572.516 81.5517 572.573 83.7197L578.569 84.9186V88.0001H558.697ZM568.805 36.8112C567.206 36.8112 565.835 36.2976 564.693 35.2704C563.609 34.2432 563.066 32.9307 563.066 31.3328C563.066 29.6779 563.609 28.3653 564.693 27.3952C565.835 26.368 567.206 25.8544 568.805 25.8544C570.403 25.8544 571.745 26.368 572.83 27.3952C573.972 28.3653 574.543 29.6779 574.543 31.3328C574.543 32.9307 573.972 34.2432 572.83 35.2704C571.745 36.2976 570.403 36.8112 568.805 36.8112Z" fill="#5393C2"/>
<path d="M582.927 88.0001V84.9187L589.262 83.7197C589.32 81.5517 589.349 79.2119 589.349 76.7009C589.407 74.1899 589.436 71.9644 589.436 70.0238V65.9152C589.436 63.5754 589.407 61.6354 589.349 60.0947C589.349 58.5534 589.291 56.9272 589.175 55.2152L582.41 54.4448V51.4488L594.4 46.2272L595.69 47.0832L596.375 53.9312C598.482 51.6486 600.91 49.7939 603.65 48.3672C606.391 46.9406 609.079 46.2272 611.704 46.2272C615.414 46.2272 618.155 47.4827 619.926 49.9936C621.755 52.4475 622.666 56.4707 622.666 62.0631V70.0238C622.666 71.9644 622.666 74.1899 622.666 76.7009C622.724 79.2119 622.782 81.5517 622.84 83.7197L628.833 84.9187V88.0001H608.963V84.9187L615.304 83.7197C615.356 81.6086 615.385 79.2972 615.385 76.7862C615.443 74.2183 615.472 71.9644 615.472 70.0238V62.7479C615.472 58.8105 614.903 56.0998 613.759 54.616C612.673 53.1323 610.873 52.3904 608.365 52.3904C606.42 52.3904 604.539 52.7899 602.71 53.5888C600.88 54.3877 598.883 55.7003 596.717 57.5264V70.0238C596.717 71.9075 596.717 74.133 596.717 76.7009C596.77 79.2119 596.828 81.5517 596.886 83.7197L602.797 84.9187V88.0001H582.927Z" fill="#5393C2"/>
<path d="M649.341 50.1648C647.744 50.1648 646.119 50.6213 644.458 51.5344C642.861 52.4475 641.462 53.9027 640.266 55.9C639.122 57.8973 638.379 60.5508 638.036 63.8609H653.626C655.682 63.8609 657.023 63.4326 657.65 62.5767C658.335 61.7207 658.678 60.6651 658.678 59.4093C658.678 57.7547 658.248 56.2424 657.395 54.8728C656.594 53.4461 655.479 52.3048 654.056 51.4488C652.686 50.5928 651.112 50.1648 649.341 50.1648ZM649.26 89.1126C643.488 89.1126 638.866 87.2579 635.383 83.5485C631.899 79.7823 630.157 74.6181 630.157 68.0554C630.157 63.6613 631.039 59.8376 632.81 56.5848C634.639 53.332 637.037 50.7925 640.004 48.9664C643.035 47.1403 646.316 46.2272 649.858 46.2272C652.825 46.2272 655.508 46.8834 657.906 48.196C660.304 49.5085 662.22 51.3918 663.648 53.8456C665.077 56.2424 665.785 59.1813 665.785 62.6626C665.785 63.6323 665.733 64.5457 665.617 65.4016C665.501 66.2007 665.361 66.8855 665.187 67.4559H637.868C637.978 72.706 639.29 76.7009 641.804 79.4399C644.319 82.179 647.628 83.5485 651.739 83.5485C654.48 83.5485 656.768 83.0065 658.591 81.9225C660.42 80.781 662.104 79.3256 663.648 77.5568L665.704 79.1834C664.101 82.208 661.935 84.6331 659.195 86.4594C656.454 88.2282 653.139 89.1126 649.26 89.1126Z" fill="#5393C2"/>
<path d="M116.786 26.9318C119.37 37.744 116.641 47.9853 112.343 57.8568C107.252 69.5486 99.0409 78.8213 89.1682 86.7211C82.5692 92.0025 75.4011 96.3787 67.7953 100.069C66.9951 100.458 65.86 100.582 64.3898 100.443C64.1105 100.416 63.8986 100.179 63.9044 99.8982L63.9148 99.409C66.0284 97.6791 67.3685 96.1674 67.9358 94.8722C82.5872 61.4405 75.1317 44.9706 68.8718 34.3651C68.3248 33.2626 67.7308 32.165 67.0915 31.074C65.1812 27.8137 63.2 25.5208 59.9618 22.7729L59.1251 22.0757C58.9811 21.9576 58.8348 21.8385 58.6861 21.7184L57.7635 20.9834L56.7782 20.2172L55.7261 19.4147L54.1411 18.2225L54.3262 17.7865C57.621 10.2872 63.9386 6.00749 71.1955 3.14234C90.2796 -4.39332 112.011 6.97336 116.786 26.9318Z" fill="#94BCD9"/>
<g style="mix-blend-mode:overlay">
<g style="mix-blend-mode:overlay">
<g style="mix-blend-mode:overlay">
<path d="M116.786 26.9318C119.37 37.744 116.641 47.9853 112.343 57.8568C107.252 69.5486 99.0409 78.8213 89.1682 86.7211C82.5692 92.0025 75.4011 96.3787 67.7953 100.069C66.9951 100.458 65.86 100.582 64.3898 100.443C64.1105 100.416 63.8986 100.179 63.9044 99.8982L63.9148 99.409C66.0284 97.6791 67.3685 96.1674 67.9358 94.8722C82.5872 61.4405 75.1317 44.9706 68.8718 34.3651C68.3248 33.2626 67.7308 32.165 67.0915 31.074C65.1812 27.8137 63.2 25.5208 59.9618 22.7729L59.1251 22.0757C58.9811 21.9576 58.8348 21.8385 58.6861 21.7184L57.7635 20.9834L56.7782 20.2172L55.7261 19.4147L54.1411 18.2225L54.3262 17.7865C57.621 10.2872 63.9386 6.00749 71.1955 3.14234C90.2796 -4.39332 112.011 6.97336 116.786 26.9318Z" fill="#333333"/>
</g>
</g>
</g>
<path d="M32.5771 18.9838C38.2272 18.965 43.4687 20.0081 48.5822 22.1695L49.6371 22.9686L51.7586 24.5559L52.8139 25.3555C56.1407 27.9034 59.2988 30.6281 61.4826 34.3554C68.0038 45.484 69.6012 58.2412 62.1799 68.0525L61.8519 68.4773C61.8159 68.5231 61.7886 68.5626 61.7659 68.6009L61.7079 68.7146L61.6115 68.9253C61.597 68.9543 61.5813 68.985 61.5633 69.0193L61.4228 69.263L61.2939 69.4615L61.1197 69.6878L59.5891 71.6075L58.5654 72.9294L58.1207 73.5178L57.6621 74.1341L56.9583 75.1038L56.4843 75.7747L56.0116 76.4606L55.5444 77.1587L55.0868 77.8644L54.6433 78.5747C53.338 80.7073 52.2791 82.8481 51.9836 84.5455C50.6772 92.053 53.0365 98.607 56.3988 104.862L56.9375 105.848L57.4908 106.829L58.0559 107.806L58.631 108.779L59.2128 109.75L59.1902 110.807C58.1961 111.457 57.2963 111.193 56.4213 110.783L56.0477 110.599L55.6759 110.411C40.0341 102.6 25.3809 93.3744 13.3018 80.5675C7.13037 74.0233 2.36807 66.622 1.11268 57.516C-1.51563 38.4649 12.7412 19.0506 32.5771 18.9838ZM50.1964 44.96C47.3247 44.96 44.9967 47.286 44.9967 50.1553C44.9967 53.0246 47.3247 55.3506 50.1964 55.3506C53.068 55.3506 55.396 53.0246 55.396 50.1553C55.396 47.286 53.068 44.96 50.1964 44.96ZM16.399 44.96C13.5274 44.96 11.1995 47.286 11.1995 50.1553C11.1995 53.0246 13.5274 55.3506 16.399 55.3506C19.2707 55.3506 21.5987 53.0246 21.5987 50.1553C21.5987 47.286 19.2707 44.96 16.399 44.96ZM33.2977 44.96C30.4261 44.96 28.0981 47.286 28.0981 50.1553C28.0981 53.0246 30.4261 55.3506 33.2977 55.3506C36.1694 55.3506 38.4973 53.0246 38.4973 50.1553C38.4973 47.286 36.1694 44.96 33.2977 44.96Z" fill="#EBAB98"/>
<g style="mix-blend-mode:overlay">
<g style="mix-blend-mode:overlay">
<g style="mix-blend-mode:overlay">
<path d="M32.5771 18.9838C38.2272 18.965 43.4687 20.0081 48.5822 22.1695L49.6371 22.9686L51.7586 24.5559L52.8139 25.3555C56.1407 27.9034 59.2988 30.6281 61.4826 34.3554C68.0038 45.484 69.6012 58.2412 62.1799 68.0525L61.8519 68.4773C61.8159 68.5231 61.7886 68.5626 61.7659 68.6009L61.7079 68.7146L61.6115 68.9253C61.597 68.9543 61.5813 68.985 61.5633 69.0193L61.4228 69.263L61.2939 69.4615L61.1197 69.6878L59.5891 71.6075L58.5654 72.9294L58.1207 73.5178L57.6621 74.1341L56.9583 75.1038L56.4843 75.7747L56.0116 76.4606L55.5444 77.1587L55.0868 77.8644L54.6433 78.5747C53.338 80.7073 52.2791 82.8481 51.9836 84.5455C50.6772 92.053 53.0365 98.607 56.3988 104.862L56.9375 105.848L57.4908 106.829L58.0559 107.806L58.631 108.779L59.2128 109.75L59.1902 110.807C58.1961 111.457 57.2963 111.193 56.4213 110.783L56.0477 110.599L55.6759 110.411C40.0341 102.6 25.3809 93.3744 13.3018 80.5675C7.13037 74.0233 2.36807 66.622 1.11268 57.516C-1.51563 38.4649 12.7412 19.0506 32.5771 18.9838ZM50.1964 44.96C47.3247 44.96 44.9967 47.286 44.9967 50.1553C44.9967 53.0246 47.3247 55.3506 50.1964 55.3506C53.068 55.3506 55.396 53.0246 55.396 50.1553C55.396 47.286 53.068 44.96 50.1964 44.96ZM16.399 44.96C13.5274 44.96 11.1995 47.286 11.1995 50.1553C11.1995 53.0246 13.5274 55.3506 16.399 55.3506C19.2707 55.3506 21.5987 53.0246 21.5987 50.1553C21.5987 47.286 19.2707 44.96 16.399 44.96ZM33.2977 44.96C30.4261 44.96 28.0981 47.286 28.0981 50.1553C28.0981 53.0246 30.4261 55.3506 33.2977 55.3506C36.1694 55.3506 38.4973 53.0246 38.4973 50.1553C38.4973 47.286 36.1694 44.96 33.2977 44.96Z" fill="#333333"/>
</g>
</g>
</g>
</svg>
