<svg viewBox="0 0 62 70" xmlns="http://www.w3.org/2000/svg">
<path d="M60.2303 56.4041C58.703 53.8376 56.9726 51.3976 55.0555 49.1074C54.0208 47.7188 52.766 46.5087 51.3406 45.5252C49.6159 44.5969 47.0954 44.0662 45.3707 45.2599C44.5746 45.7906 44.3246 46.1886 43.5285 46.7193C42.8672 47.25 42.0691 47.648 41.4061 48.1787C39.416 49.5055 37.6912 48.7094 36.2318 47.25C32.4669 43.7061 28.9642 39.8935 25.7513 35.8424C24.5572 34.383 17.5263 26.5556 19.516 24.5655C19.6487 24.4328 19.368 24.3001 19.5007 24.1674C19.7661 23.9021 20.5774 23.5061 20.8423 23.2391L22.6998 21.3817C23.3632 20.7183 23.4806 20.1876 24.1439 19.5242C25.6033 18.0648 25.6033 15.4117 25.0727 13.5543C24.542 11.9622 23.3479 10.5028 22.2865 9.17642C20.4157 6.81938 18.3281 4.64284 16.0512 2.67535C14.4591 1.34902 12.602 0.154112 10.6119 0.0222642C9.99529 -0.0381166 9.37281 0.0246162 8.78064 0.206824C8.18846 0.389032 7.63839 0.687081 7.16237 1.08366C6.46659 1.66687 5.80241 2.28676 5.17266 2.9407C3.04127 5.28686 1.49585 8.10447 0.66295 11.1628C0.0258713 13.4943 -0.154337 15.927 0.13225 18.3269C0.66295 24.5622 3.3148 30.0018 6.50023 35.1757C9.9208 40.9372 13.8266 46.3964 18.1752 51.4939C24.4105 58.5253 32.6359 66.485 41.9224 69.1385C44.2359 69.8672 46.6693 70.1376 49.0864 69.9345C52.2315 69.7408 55.2823 68.7846 57.9752 67.1483C58.7712 66.6176 59.5673 66.0869 60.2307 65.5566C61.1768 64.7435 61.7908 63.6107 61.9554 62.3741C62.0877 60.1186 61.2917 58.1289 60.2303 56.4041Z" fill="black"/>
</svg>
