<svg viewBox="0 0 25 29" xmlns="http://www.w3.org/2000/svg">
<path d="M24.0921 22.6074C23.4812 21.5799 22.789 20.6031 22.0222 19.6863C21.6083 19.1304 21.1064 18.646 20.5363 18.2523C19.8463 17.8806 18.8382 17.6682 18.1483 18.146C17.8298 18.3585 17.7298 18.5178 17.4114 18.7303C17.1469 18.9427 16.8276 19.1021 16.5625 19.3145C15.7664 19.8457 15.0765 19.527 14.4927 18.9427C12.9867 17.524 11.5857 15.9978 10.3005 14.376C9.8229 13.7918 7.01052 10.6582 7.80641 9.86154C7.85948 9.80843 7.74722 9.75531 7.80029 9.7022C7.90643 9.59598 8.23096 9.43746 8.33694 9.33057L9.07992 8.58699C9.34527 8.32143 9.39222 8.10897 9.65757 7.8434C10.2413 7.25916 10.2413 6.19706 10.0291 5.45347C9.81678 4.81611 9.33915 4.23187 8.91459 3.70091C8.16627 2.75732 7.33125 1.88599 6.42047 1.09836C5.78363 0.56739 5.04082 0.089039 4.24477 0.0362567C3.99812 0.0120847 3.74913 0.0371982 3.51225 0.110141C3.27538 0.183083 3.05536 0.3024 2.86495 0.461161C2.58664 0.694634 2.32097 0.942795 2.06906 1.20458C1.21651 2.14381 0.598342 3.27177 0.26518 4.49611C0.0103485 5.42946 -0.0617348 6.40333 0.0529002 7.36406C0.26518 9.86022 1.32592 12.0379 2.60009 14.1091C3.96832 16.4156 5.53065 18.601 7.27008 20.6417C9.76421 23.4565 13.0544 26.643 16.7689 27.7053C17.6943 27.997 18.6677 28.1053 19.6346 28.0239C20.8926 27.9464 22.1129 27.5636 23.1901 26.9086C23.5085 26.6961 23.8269 26.4837 24.0923 26.2714C24.4707 25.9459 24.7163 25.4924 24.7822 24.9973C24.8351 24.0944 24.5167 23.2979 24.0921 22.6074Z" />
</svg>
