<svg viewBox="0 0 53 56" xmlns="http://www.w3.org/2000/svg">
<path d="M1.69252 45.5639L11.129 36.2401C8.47806 32.4814 7.05604 27.9941 7.05828 23.3946C7.05828 10.9351 17.3213 0.800049 29.9328 0.800049C42.5444 0.800049 52.8042 10.9351 52.8042 23.3946C52.8042 35.8541 42.5447 45.9914 29.9328 45.9914C26.5737 45.9956 23.2547 45.2624 20.21 43.8436L10.08 53.8522C8.98697 54.9279 7.51278 55.5274 5.97924 55.5201C4.39738 55.523 2.87868 54.8996 1.75523 53.786C1.20638 53.253 0.768925 52.6163 0.468288 51.9128C0.167652 51.2093 0.00983429 50.4531 0.00400162 49.688C-0.00183487 48.923 0.144424 48.1645 0.434292 47.4565C0.724163 46.7485 1.15186 46.1052 1.69252 45.5639ZM43.6564 23.3946C43.6564 15.9197 37.4992 9.83621 29.9328 9.83621C22.3664 9.83621 16.208 15.9197 16.208 23.3946C16.208 30.8695 22.3652 36.9546 29.9328 36.9546C37.5005 36.9546 43.6564 30.8717 43.6564 23.3946Z" fill="black"/>
</svg>
