<svg viewBox="0 0 73 80" xmlns="http://www.w3.org/2000/svg">
<path d="M72.0865 36.0567C72.0891 28.9819 70.0096 22.0628 66.1071 16.1617C62.2047 10.2605 56.6518 5.63838 50.1406 2.87127C43.6294 0.10416 36.4478 -0.685535 29.4909 0.600608C22.534 1.88675 16.1094 5.19185 11.0179 10.104C5.92633 15.0161 2.39303 21.3181 0.858299 28.2244C-0.676433 35.1307 -0.144721 42.336 2.38718 48.9422C4.91907 55.5485 9.33918 61.2635 15.0966 65.375C20.854 69.4866 27.6942 71.8128 34.7645 72.0638C37.5368 74.7632 46.512 82.3681 56.6716 79.2708C56.6716 79.2708 59.695 78.4437 58.083 75.9712C56.3759 73.2766 54.8881 70.4492 53.6341 67.5162C59.2305 64.3883 63.891 59.8238 67.1347 54.2936C70.3784 48.7635 72.0878 42.468 72.0865 36.0567V36.0567ZM17.0657 43.4665C15.6191 43.4665 14.2049 43.0376 13.0021 42.2338C11.7992 41.4301 10.8617 40.2878 10.3081 38.9512C9.75448 37.6147 9.60961 36.144 9.89184 34.7251C10.1741 33.3063 10.8707 32.003 11.8937 30.98C12.9166 29.9571 14.2199 29.2605 15.6388 28.9782C17.0576 28.696 18.5283 28.8408 19.8648 29.3945C21.2014 29.9481 22.3437 30.8856 23.1475 32.0884C23.9512 33.2913 24.3802 34.7054 24.3802 36.1521C24.3802 38.092 23.6095 39.9525 22.2378 41.3242C20.8661 42.6959 19.0056 43.4665 17.0657 43.4665V43.4665ZM36.7503 43.4665C35.3035 43.467 33.8892 43.0384 32.686 42.2349C31.4829 41.4314 30.545 40.2892 29.9911 38.9527C29.4371 37.6162 29.292 36.1455 29.574 34.7265C29.8559 33.3075 30.5524 32.004 31.5753 30.9808C32.5981 29.9576 33.9014 29.2608 35.3203 28.9784C36.7392 28.696 38.21 28.8407 39.5467 29.3942C40.8834 29.9478 42.0259 30.8853 42.8297 32.0882C43.6335 33.2911 44.0625 34.7054 44.0625 36.1521C44.0625 38.0916 43.2922 39.9518 41.921 41.3234C40.5497 42.6951 38.6898 43.466 36.7503 43.4665V43.4665ZM48.8365 36.1521C48.8365 34.7054 49.2655 33.2913 50.0692 32.0884C50.8729 30.8856 52.0153 29.9481 53.3518 29.3945C54.6884 28.8408 56.1591 28.696 57.5779 28.9782C58.9968 29.2605 60.3001 29.9571 61.323 30.98C62.346 32.003 63.0426 33.3063 63.3248 34.7251C63.6071 36.144 63.4622 37.6147 62.9086 38.9512C62.355 40.2878 61.4175 41.4301 60.2146 42.2338C59.0118 43.0376 57.5976 43.4665 56.151 43.4665C54.2111 43.4665 52.3506 42.6959 50.9789 41.3242C49.6072 39.9525 48.8365 38.092 48.8365 36.1521Z" fill="black"/>
</svg>
