<svg viewBox="0 0 29 33" xmlns="http://www.w3.org/2000/svg">
<path d="M28.8346 14.4344C28.8357 11.6022 28.0038 8.83231 26.4429 6.46993C24.8819 4.10756 22.6607 2.25719 20.0562 1.14944C17.4517 0.0416979 14.5791 -0.274438 11.7963 0.240439C9.01358 0.755316 6.44375 2.07843 4.40714 4.04489C2.37053 6.01135 0.957213 8.53418 0.34332 11.299C-0.270573 14.0637 -0.0578885 16.9482 0.95487 19.5928C1.96763 22.2375 3.73567 24.5254 6.03864 26.1713C8.34162 27.8173 11.0777 28.7485 13.9058 28.849C15.0147 29.9296 18.6048 32.9741 22.6687 31.7341C22.6687 31.7341 23.878 31.403 23.2332 30.4132C22.5504 29.3345 21.9552 28.2026 21.4536 27.0285C23.6922 25.7763 25.5564 23.949 26.8539 21.7351C28.1514 19.5213 28.8351 17.001 28.8346 14.4344ZM6.82629 17.4008C6.24763 17.4008 5.68196 17.229 5.20082 16.9073C4.71968 16.5855 4.34468 16.1282 4.12324 15.5932C3.90179 15.0581 3.84385 14.4694 3.95674 13.9014C4.06963 13.3334 4.34828 12.8116 4.75746 12.4021C5.16664 11.9926 5.68796 11.7137 6.2555 11.6007C6.82305 11.4877 7.41132 11.5457 7.94594 11.7674C8.48055 11.989 8.93749 12.3643 9.25898 12.8458C9.58047 13.3274 9.75207 13.8935 9.75207 14.4726C9.75207 15.2492 9.44382 15.994 8.89513 16.5431C8.34644 17.0923 7.60226 17.4008 6.82629 17.4008ZM14.7001 17.4008C14.1214 17.4009 13.5557 17.2294 13.0744 16.9077C12.5931 16.5861 12.218 16.1288 11.9964 15.5938C11.7749 15.0588 11.7168 14.47 11.8296 13.9019C11.9424 13.3338 12.221 12.812 12.6301 12.4024C13.0392 11.9928 13.5606 11.7138 14.1281 11.6008C14.6957 11.4877 15.284 11.5457 15.8187 11.7673C16.3533 11.9889 16.8104 12.3642 17.1319 12.8457C17.4534 13.3273 17.625 13.8934 17.625 14.4726C17.625 15.2491 17.3169 15.9937 16.7684 16.5428C16.2199 17.0919 15.4759 17.4005 14.7001 17.4008ZM19.5346 14.4726C19.5346 13.8935 19.7062 13.3274 20.0277 12.8458C20.3492 12.3643 20.8061 11.989 21.3407 11.7674C21.8754 11.5457 22.4636 11.4877 23.0312 11.6007C23.5987 11.7137 24.12 11.9926 24.5292 12.4021C24.9384 12.8116 25.217 13.3334 25.3299 13.9014C25.4428 14.4694 25.3849 15.0581 25.1634 15.5932C24.942 16.1282 24.567 16.5855 24.0859 16.9073C23.6047 17.229 23.039 17.4008 22.4604 17.4008C21.6844 17.4008 20.9402 17.0923 20.3916 16.5431C19.8429 15.994 19.5346 15.2492 19.5346 14.4726Z" />
</svg>
