<svg viewBox="0 0 15 16" xmlns="http://www.w3.org/2000/svg">
<path d="M7.49946 4.48336e-08C6.01613 0.000109435 4.56614 0.450478 3.33285 1.29416C2.09956 2.13783 1.13835 3.33693 0.570769 4.73982C0.00318931 6.14271 -0.145269 7.68638 0.144166 9.17564C0.433602 10.6649 1.14793 12.0329 2.19683 13.1065C3.24573 14.1802 4.58208 14.9114 6.03691 15.2076C7.49174 15.5038 8.99971 15.3518 10.3701 14.7707C11.7405 14.1896 12.9119 13.2056 13.736 11.943C14.5601 10.6805 15 9.19618 15 7.67773C15.0001 6.66943 14.8061 5.67099 14.4292 4.73944C14.0522 3.80788 13.4998 2.96145 12.8033 2.24849C12.1067 1.53553 11.2799 0.970003 10.3698 0.584204C9.4598 0.198405 8.48444 -0.000108919 7.49946 4.48336e-08ZM7.49946 13.4113C6.39165 13.4113 5.30872 13.075 4.38761 12.445C3.4665 11.815 2.74858 10.9195 2.32464 9.87177C1.9007 8.82406 1.78978 7.67119 2.00591 6.55894C2.22203 5.4467 2.75549 4.42504 3.53883 3.62316C4.32217 2.82127 5.3202 2.27518 6.40672 2.05394C7.49325 1.8327 8.61946 1.94625 9.64294 2.38023C10.6664 2.8142 11.5412 3.54912 12.1567 4.49203C12.7721 5.43495 13.1006 6.54352 13.1006 7.67755C13.099 9.19773 12.5084 10.6552 11.4583 11.7301C10.4082 12.805 8.98449 13.4097 7.49946 13.4113ZM10.174 7.41077L7.82364 7.45686V4.33334C7.82364 4.09374 7.73067 3.86396 7.56516 3.69454C7.39966 3.52512 7.1752 3.42994 6.94114 3.42994C6.70709 3.42994 6.48262 3.52512 6.31712 3.69454C6.15162 3.86396 6.05864 4.09374 6.05864 4.33334V8.37796C6.05853 8.49666 6.08128 8.61422 6.12559 8.72392C6.16989 8.83362 6.23488 8.93331 6.31683 9.01729C6.39879 9.10126 6.49612 9.16788 6.60324 9.21333C6.71036 9.25878 6.82518 9.28218 6.94114 9.28218H6.95753L10.2074 9.21765C10.4414 9.21304 10.6641 9.11344 10.8264 8.94077C10.9888 8.76809 11.0774 8.53648 11.0729 8.29688C11.0684 8.05729 10.9711 7.82934 10.8024 7.66318C10.6337 7.49701 10.4075 7.40626 10.1734 7.41086L10.174 7.41077Z" />
</svg>
