<svg viewBox="0 0 55 55" xmlns="http://www.w3.org/2000/svg">
<path d="M27.498 1.60588e-07C22.0591 0.000391984 16.7425 1.61356 12.2204 4.6355C7.69837 7.65745 4.17394 11.9525 2.09282 16.9774C0.0116941 22.0024 -0.532653 27.5316 0.52861 32.8659C1.58987 38.2003 4.20908 43.1001 8.05504 46.9459C11.901 50.7917 16.801 53.4106 22.1353 54.4717C27.4697 55.5327 32.9989 54.988 38.0238 52.9067C43.0487 50.8253 47.3435 47.3007 50.3652 42.7785C53.387 38.2562 54.9999 32.9395 55 27.5007C55.0002 23.889 54.289 20.3128 52.9069 16.976C51.5249 13.6393 49.4991 10.6075 46.9453 8.05381C44.3914 5.50007 41.3595 3.47443 38.0227 2.09254C34.686 0.71066 31.1096 -0.000390136 27.498 1.60588e-07ZM27.498 48.0377C23.4361 48.0377 19.4653 46.8331 16.0879 44.5764C12.7105 42.3197 10.0781 39.1122 8.5237 35.3594C6.96925 31.6067 6.56254 27.4772 7.35499 23.4933C8.14744 19.5094 10.1035 15.8499 12.9757 12.9777C15.8479 10.1054 19.5074 8.14941 23.4913 7.35696C27.4752 6.56451 31.6047 6.97122 35.3574 8.52567C39.1102 10.0801 42.3178 12.7125 44.5745 16.0899C46.8312 19.4673 48.0357 23.438 48.0357 27.5C48.0297 32.9451 45.8641 38.1655 42.0138 42.0158C38.1635 45.866 32.9431 48.0317 27.498 48.0377ZM37.3046 26.5444L28.6867 26.7095V15.5215C28.6867 14.6633 28.3458 13.8402 27.7389 13.2334C27.1321 12.6265 26.3091 12.2856 25.4509 12.2856C24.5927 12.2856 23.7696 12.6265 23.1628 13.2334C22.5559 13.8402 22.215 14.6633 22.215 15.5215V30.0088C22.2146 30.4339 22.298 30.855 22.4605 31.248C22.6229 31.6409 22.8612 31.998 23.1617 32.2988C23.4622 32.5996 23.8191 32.8382 24.2119 33.001C24.6047 33.1638 25.0257 33.2476 25.4509 33.2476H25.511L37.4271 33.0164C38.2853 32.9999 39.1018 32.6432 39.6969 32.0247C40.2921 31.4062 40.6172 30.5766 40.6007 29.7184C40.5842 28.8602 40.2274 28.0437 39.6089 27.4485C38.9904 26.8533 38.1608 26.5283 37.3026 26.5448L37.3046 26.5444Z" fill="black"/>
</svg>
