<svg viewBox="0 0 73 73" xmlns="http://www.w3.org/2000/svg">
<path d="M70.5498 33.2748L67.2498 30.7998C65.8248 29.6748 65.2998 27.7248 65.9748 26.0748L67.5498 22.2498C68.5248 19.7748 66.9498 17.0748 64.3248 16.6998L60.1998 16.1748C58.3998 15.9498 56.9748 14.5248 56.7498 12.7248L56.2248 8.5998C55.8498 5.9748 53.1498 4.3998 50.6748 5.3748L46.8498 6.9498C45.1998 7.6248 43.2498 7.0998 42.1248 5.6748L39.5748 2.3748C37.9998 0.274805 34.7748 0.274805 33.1998 2.3748L30.7998 5.7498C29.6748 7.1748 27.7248 7.6998 26.0748 7.0248L22.2498 5.3748C19.7748 4.3998 17.0748 5.9748 16.6998 8.5998L16.1748 12.7248C15.9498 14.5248 14.5248 15.9498 12.7248 16.1748L8.59981 16.6998C5.97481 17.0748 4.3998 19.7748 5.3748 22.2498L6.94981 26.0748C7.62481 27.7248 7.0998 29.6748 5.6748 30.7998L2.3748 33.3498C0.274805 34.9248 0.274805 38.1498 2.3748 39.7248L5.7498 42.1998C7.1748 43.3248 7.69981 45.2748 7.02481 46.9248L5.3748 50.7498C4.3998 53.2248 5.97481 55.9248 8.59981 56.2998L12.7248 56.8248C14.5248 57.0498 15.9498 58.4748 16.1748 60.2748L16.6998 64.3998C17.0748 67.0248 19.7748 68.5998 22.2498 67.6248L26.0748 66.0498C27.7248 65.3748 29.6748 65.8998 30.7998 67.3248L33.3498 70.6248C34.9248 72.7248 38.1498 72.7248 39.7248 70.6248L42.2748 67.3248C43.3998 65.8998 45.3498 65.3748 46.9998 66.0498L50.8248 67.6248C53.2998 68.5998 55.9998 67.0248 56.3748 64.3998L56.8998 60.2748C57.1248 58.4748 58.5498 57.0498 60.3498 56.8248L64.4748 56.2998C67.0998 55.9248 68.6748 53.2248 67.6998 50.7498L66.1248 46.9248C65.4498 45.2748 65.9748 43.3248 67.3998 42.1998L70.6998 39.6498C72.6498 38.0748 72.6498 34.9248 70.5498 33.2748ZM49.4748 32.4498L35.8998 46.0248C35.1498 46.7748 34.1748 47.1498 33.1248 47.1498C32.0748 47.1498 31.0998 46.7748 30.3498 46.0248L23.5248 39.1998C22.0248 37.6998 22.0248 35.2248 23.5248 33.7248C25.0248 32.2248 27.4998 32.2248 28.9998 33.7248L33.0498 37.7748L43.9998 26.9748C45.4998 25.4748 47.9748 25.4748 49.4748 26.9748C50.9748 28.4748 50.9748 30.9498 49.4748 32.4498Z" fill="black"/>
</svg>
