<svg viewBox="0 0 22 21" xmlns="http://www.w3.org/2000/svg">
<path d="M2.12508 9.45898C0.979248 9.45898 0.041748 10.3965 0.041748 11.5423V18.834C0.041748 19.9798 0.979248 20.9173 2.12508 20.9173C3.27091 20.9173 4.20841 19.9798 4.20841 18.834V11.5423C4.20841 10.3965 3.27091 9.45898 2.12508 9.45898Z" />
<path d="M9.41675 3.52148C9.41675 1.5944 10.9272 0.0839844 12.8542 0.0839844C13.9376 0.0839844 14.9897 0.594401 15.6667 1.38607C16.3438 0.594401 17.3959 0.0839844 18.4793 0.0839844C20.4063 0.0839844 21.9167 1.5944 21.9167 3.52148C21.9167 5.70898 19.3126 8.2194 16.3647 10.9069C15.9688 11.2715 15.3542 11.2715 14.9584 10.9069C12.0209 8.2194 9.41675 5.70898 9.41675 3.52148Z" />
<path d="M19.823 15.709H12.7084C12.5938 15.709 12.4792 15.6882 12.3647 15.6465L10.8334 15.1152C10.5626 15.0215 10.4272 14.7298 10.5209 14.459C10.6147 14.1882 10.9167 14.0423 11.1876 14.1465L12.3542 14.5944C12.4688 14.6361 12.6042 14.6673 12.7292 14.6673H15.4688C16.1459 14.6673 16.698 14.1152 16.698 13.4382C16.698 12.9277 16.3751 12.4694 15.8959 12.2819L8.68758 9.5944C8.45842 9.50065 8.20842 9.45898 7.95842 9.45898H6.29175V18.8548L12.9272 20.7402C13.3542 20.8652 13.8126 20.8444 14.2292 20.6882L21.9167 17.7923C21.9167 16.6361 20.9792 15.709 19.823 15.709Z"/>
</svg>
