<svg viewBox="0 0 29 33" xmlns="http://www.w3.org/2000/svg">
<path d="M28.8345 14.4891C28.8355 11.6569 28.0037 8.88696 26.4427 6.5246C24.8818 4.16223 22.6606 2.31187 20.0561 1.20413C17.4517 0.0963852 14.579 -0.219749 11.7963 0.295126C9.01354 0.81 6.44373 2.13311 4.40713 4.09956C2.37053 6.06601 0.957208 8.58883 0.343318 11.3536C-0.270573 14.1184 -0.0578868 17.0028 0.954868 19.6475C1.96762 22.2921 3.73566 24.5799 6.03862 26.2259C8.34158 27.8718 11.0776 28.8031 13.9057 28.9036C15.0147 29.9842 18.6047 33.0286 22.6686 31.7889C22.6686 31.7889 23.8779 31.4576 23.2331 30.4678C22.5503 29.3891 21.9552 28.2572 21.4535 27.0831C23.6921 25.8309 25.5563 24.0036 26.8538 21.7897C28.1512 19.5759 28.835 17.0557 28.8345 14.4891ZM17.245 19.3207H8.96846C8.12307 19.3207 7.43619 18.4579 7.43619 17.3935C7.43619 16.3328 8.12307 15.4719 8.96846 15.4719H17.245C18.091 15.4719 18.7773 16.3324 18.7773 17.3935C18.7773 18.4546 18.091 19.3207 17.245 19.3207ZM19.7389 12.9711H9.35958C8.84976 12.9711 8.36082 12.7684 8.00031 12.4076C7.63981 12.0469 7.43729 11.5575 7.43729 11.0473C7.43729 10.537 7.63981 10.0477 8.00031 9.68689C8.36082 9.3261 8.84976 9.12341 9.35958 9.12341H19.7397C20.2496 9.12341 20.7385 9.3261 21.099 9.68689C21.4595 10.0477 21.662 10.537 21.662 11.0473C21.662 11.5575 21.4595 12.0469 21.099 12.4076C20.7385 12.7684 20.2496 12.9711 19.7397 12.9711H19.7389Z" />
</svg>
