<svg viewBox="0 0 81 88" xmlns="http://www.w3.org/2000/svg">
<g filter="url(#filter0_d)">
<path d="M76.0862 38.0566C76.0889 30.9818 74.0094 24.0627 70.1069 18.1616C66.2044 12.2605 60.6516 7.63836 54.1404 4.87126C47.6292 2.10416 40.4476 1.31447 33.4907 2.60061C26.5339 3.88674 20.1093 7.19183 15.0178 12.104C9.92632 17.0161 6.39302 23.318 4.85829 30.2243C3.32357 37.1306 3.85528 44.3359 6.38717 50.9421C8.91906 57.5483 13.3391 63.2633 19.0966 67.3748C24.854 71.4863 31.6941 73.8125 38.7644 74.0635C41.5367 76.7629 50.5118 84.3678 60.6714 81.271C60.6714 81.271 63.6947 80.4434 62.0828 77.9709C60.3757 75.2763 58.8879 72.4489 57.6339 69.5159C63.2303 66.388 67.8908 61.8235 71.1345 56.2934C74.3781 50.7633 76.0875 44.4678 76.0862 38.0566ZM47.1125 50.1258H26.4212C24.3077 50.1258 22.5905 47.9706 22.5905 45.3118C22.5905 42.6623 24.3077 40.5115 26.4212 40.5115H47.1125C49.2276 40.5115 50.9432 42.6612 50.9432 45.3118C50.9432 47.9624 49.2276 50.1258 47.1125 50.1258ZM53.3472 34.2648H27.399C26.1244 34.2648 24.902 33.7585 24.0008 32.8573C23.0995 31.956 22.5932 30.7337 22.5932 29.4591C22.5932 28.1845 23.0995 26.9622 24.0008 26.0609C24.902 25.1597 26.1244 24.6533 27.399 24.6533H53.3493C54.6239 24.6533 55.8463 25.1597 56.7475 26.0609C57.6488 26.9622 58.1551 28.1845 58.1551 29.4591C58.1551 30.7337 57.6488 31.956 56.7475 32.8573C55.8463 33.7585 54.6239 34.2648 53.3493 34.2648H53.3472Z" fill="black"/>
</g>
<defs>
<filter id="filter0_d" x="0" y="0" width="80.0862" height="88" filterUnits="userSpaceOnUse" color-interpolation-filters="sRGB">
<feFlood flood-opacity="0" result="BackgroundImageFix"/>
<feColorMatrix in="SourceAlpha" type="matrix" values="0 0 0 0 0 0 0 0 0 0 0 0 0 0 0 0 0 0 127 0"/>
<feOffset dy="2"/>
<feGaussianBlur stdDeviation="2"/>
<feColorMatrix type="matrix" values="0 0 0 0 0 0 0 0 0 0 0 0 0 0 0 0 0 0 0.15 0"/>
<feBlend mode="normal" in2="BackgroundImageFix" result="effect1_dropShadow"/>
<feBlend mode="normal" in="SourceGraphic" in2="effect1_dropShadow" result="shape"/>
</filter>
</defs>
</svg>
